<svg xmlns="http://www.w3.org/2000/svg" version="1.1" xmlns:xlink="http://www.w3.org/1999/xlink" xmlns:svgjs="http://svgjs.dev/svgjs" width="128" height="128" viewBox="0 0 128 128"><g transform="matrix(0.8046875,0,0,0.8046875,12.760752631578946,30.812461174773503)"><svg viewBox="0 0 95 61" data-background-color="#f9f9f9" preserveAspectRatio="xMidYMid meet" height="82" width="128" xmlns="http://www.w3.org/2000/svg" xmlns:xlink="http://www.w3.org/1999/xlink"><g id="tight-bounds" transform="matrix(1,0,0,1,-0.24049999999999727,0.18059473684211014)"><svg viewBox="0 0 95.481 60.63881052631579" height="60.63881052631579" width="95.481"><g><svg viewBox="0 0 95.481 60.63881052631579" height="60.63881052631579" width="95.481"><g><svg viewBox="0 0 95.481 60.63881052631579" height="60.63881052631579" width="95.481"><g id="textblocktransform"><svg viewBox="0 0 95.481 60.63881052631579" height="60.63881052631579" width="95.481" id="textblock"><g><svg viewBox="0 0 95.481 60.63881052631579" height="60.63881052631579" width="95.481"><g><svg viewBox="0 0 95.481 60.63881052631579" height="60.63881052631579" width="95.481"><g><svg xmlns="http://www.w3.org/2000/svg" xmlns:xlink="http://www.w3.org/1999/xlink" xml:space="preserve" version="1.1" style="shape-rendering:geometricPrecision;text-rendering:geometricPrecision;image-rendering:optimizeQuality;" viewBox="24 76 285 181" x="0" y="0" fill-rule="evenodd" clip-rule="evenodd" height="60.63881052631579" width="95.481" class="icon-icon-0" data-fill-palette-color="accent" id="icon-0"><g fill="#030303" data-fill-palette-color="accent"><path class="" d="M24 135l74 0 0 122-74 0 0-122z m122 122l41 0 0-57-41 0 0 57z m-34-181l108 0 0 181-20 0 0-71-69 0 0 71-20 0 0-181z m16 87l77 0 0 11-77 0 0-11z m0-25l77 0 0 11-77 0 0-11z m0-25l77 0 0 11-77 0 0-11z m0-25l77 0 0 11-77 0 0-11z m107 46l74 0 0 122-74 0 0-122z m16 93l42 0 0 11-42 0 0-11z m0-25l42 0 0 11-42 0 0-11z m0-25l42 0 0 11-42 0 0-11z m0-25l42 0 0 11-42 0 0-11z m-211 75l42 0 0 11-42 0 0-11z m0-25l42 0 0 11-42 0 0-11z m0-25l42 0 0 11-42 0 0-11z m0-25l42 0 0 11-42 0 0-11z" fill="#030303" data-fill-palette-color="accent"></path></g></svg></g></svg></g></svg></g></svg></g></svg></g></svg></g><defs></defs></svg><rect width="95.481" height="60.63881052631579" fill="none" stroke="none" visibility="hidden"></rect></g></svg></g></svg>