<svg xmlns="http://www.w3.org/2000/svg" version="1.1" xmlns:xlink="http://www.w3.org/1999/xlink" xmlns:svgjs="http://svgjs.dev/svgjs" width="2000" height="2285" viewBox="0 0 2000 2285"><g transform="matrix(1,0,0,1,-1.9880953324543498,0)"><svg viewBox="0 0 245 280" data-background-color="#f9f9f9" preserveAspectRatio="xMidYMid meet" height="2285" width="2000" xmlns="http://www.w3.org/2000/svg" xmlns:xlink="http://www.w3.org/1999/xlink"><g id="tight-bounds" transform="matrix(1,0,0,1,0.24354167822565387,0)"><svg viewBox="0 0 244.51256516776382 280" height="280" width="244.51256516776382"><g><svg viewBox="0 0 278.2696 318.6563763974297" height="280" width="244.51256516776382"><g><svg viewBox="0 0 278.2696 318.6563763974297" height="318.6563763974297" width="278.2696"><g id="textblocktransform"><svg viewBox="0 0 278.2696 318.6563763974297" height="318.6563763974297" width="278.2696" id="textblock"><g><svg viewBox="0 0 278.2696 278.2696" height="278.2696" width="278.2696"><g transform="matrix(1,0,0,1,89.94321971048299,107.89383146525411)"><svg viewBox="0 0 98.38316057903405 62.481937069491806" height="62.481937069491806" width="98.38316057903405"><g id="icon-0"><svg xmlns="http://www.w3.org/2000/svg" xmlns:xlink="http://www.w3.org/1999/xlink" xml:space="preserve" version="1.1" style="shape-rendering:geometricPrecision;text-rendering:geometricPrecision;image-rendering:optimizeQuality;" viewBox="24 76 285 181" x="0" y="0" fill-rule="evenodd" clip-rule="evenodd" height="62.481937069491806" width="98.38316057903405" class="icon-xg-0" data-fill-palette-color="accent" id="xg-0"><g fill="#030303" data-fill-palette-color="accent"><path class="" d="M24 135l74 0 0 122-74 0 0-122z m122 122l41 0 0-57-41 0 0 57z m-34-181l108 0 0 181-20 0 0-71-69 0 0 71-20 0 0-181z m16 87l77 0 0 11-77 0 0-11z m0-25l77 0 0 11-77 0 0-11z m0-25l77 0 0 11-77 0 0-11z m0-25l77 0 0 11-77 0 0-11z m107 46l74 0 0 122-74 0 0-122z m16 93l42 0 0 11-42 0 0-11z m0-25l42 0 0 11-42 0 0-11z m0-25l42 0 0 11-42 0 0-11z m0-25l42 0 0 11-42 0 0-11z m-211 75l42 0 0 11-42 0 0-11z m0-25l42 0 0 11-42 0 0-11z m0-25l42 0 0 11-42 0 0-11z m0-25l42 0 0 11-42 0 0-11z" fill="#030303" data-fill-palette-color="accent"></path></g></svg></g></svg></g><g id="text-0"><path d="M30.479 97.81l-4.735 12.126-0.624-0.244-0.308-3.944-21.289-8.312-2.899 2.692-0.624-0.244 5.208-13.338c1.068-2.734 2.474-4.666 4.218-5.797 1.745-1.131 3.605-1.31 5.582-0.538v0c1.429 0.558 2.471 1.52 3.126 2.886 0.649 1.363 0.968 2.942 0.956 4.734v0l13.899-2.887 2.656-2.207 0.624 0.244-3.304 8.463-14.752 2.565-0.804 2.06 9.666 3.774 2.779-2.277zM6.347 89.956v0l-0.608 1.556 9.759 3.811 0.699-1.79c0.631-1.616 0.671-3.068 0.122-4.356-0.541-1.293-1.541-2.224-3.002-2.794v0c-1.535-0.599-2.906-0.601-4.112-0.005-1.204 0.59-2.157 1.782-2.858 3.578z" fill="#030303" data-fill-palette-color="primary"></path><path d="M45.84 70.303v0c-1.699 2.319-3.71 3.658-6.031 4.016-2.322 0.358-4.585-0.271-6.791-1.887v0c-1.711-1.254-2.954-2.735-3.729-4.443-0.774-1.708-1.07-3.467-0.885-5.276 0.18-1.803 0.84-3.482 1.978-5.037v0c1.336-1.824 2.983-2.797 4.941-2.918 1.957-0.121 4.058 0.624 6.301 2.235v0l0.075 0.254-6.93 9.46 0.169 0.124c0.947 0.694 1.94 1.144 2.979 1.351 1.044 0.211 2.074 0.093 3.088-0.355 1.024-0.449 1.989-1.292 2.896-2.53v0c0.477-0.651 0.898-1.389 1.262-2.213 0.359-0.829 0.627-1.765 0.805-2.809v0l0.077-0.105 0.541 0.396c0.781 1.44 1.138 3.029 1.072 4.767-0.057 1.736-0.662 3.393-1.818 4.97zM31.326 59.57v0c-0.576 0.786-0.688 1.696-0.337 2.73 0.35 1.034 1.128 2.1 2.333 3.198v0l4.187-5.715c-1.673-0.978-2.986-1.444-3.938-1.397-0.952 0.047-1.7 0.441-2.245 1.184z" fill="#030303" data-fill-palette-color="primary"></path><path d="M60.471 54.439v0c-1.045 0.882-2.21 1.322-3.492 1.322-1.273 0.001-2.395-0.615-3.365-1.848v0c-0.645-0.765-1.047-1.547-1.207-2.347-0.164-0.795-0.042-1.71 0.369-2.745 0.4-1.036 1.13-2.292 2.188-3.769v0l2.387-3.27-1.671-1.981c-0.684-0.811-1.479-1.257-2.386-1.339-0.902-0.077-1.739 0.21-2.509 0.859v0c-0.683 0.576-1.046 1.14-1.088 1.69-0.051 0.549 0.177 1.125 0.684 1.727v0l1.239 1.469-0.02 0.239-2.112 1.781c-0.321 0.271-0.608 0.386-0.86 0.345-0.257-0.045-0.537-0.249-0.843-0.611v0c-0.396-0.469-0.597-1.085-0.602-1.848-0.001-0.767 0.146-1.602 0.44-2.504v0c0.357-1.139 0.779-2.097 1.267-2.875 0.493-0.782 1.134-1.506 1.924-2.173v0c1.045-0.882 2.123-1.555 3.232-2.018 1.109-0.455 2.181-0.6 3.219-0.437 1.032 0.168 1.954 0.734 2.767 1.698v0l7.121 8.445c0.63 0.054 1.286-0.208 1.97-0.784v0l0.933-0.787 0.176 0.022 0.374 0.444c0.109 0.606 0.025 1.318-0.253 2.137-0.278 0.819-0.863 1.605-1.755 2.357v0c-0.898 0.757-1.786 1.188-2.667 1.293-0.884 0.1-1.774-0.075-2.668-0.525v0l-0.191 0.161c-0.027 1.044-0.239 2.091-0.636 3.142-0.392 1.046-1.047 1.956-1.965 2.73zM57.089 49.45v0c0.576 0.683 1.19 1.034 1.842 1.052 0.652 0.018 1.309-0.253 1.972-0.813v0c0.576-0.486 1.076-1.125 1.498-1.917v0l-3.967-4.705c-0.868 1.133-1.469 2.076-1.802 2.829-0.334 0.753-0.453 1.403-0.358 1.951 0.096 0.538 0.368 1.073 0.815 1.603z" fill="#030303" data-fill-palette-color="primary"></path><path d="M87.792 35.308l-9.811 5.376-0.322-0.588 1.822-2.527-11.83-21.586-3.298-0.44-0.241-0.439 5.984-5.903 0.439-0.241 14.123 25.772 2.812-0.012z" fill="#030303" data-fill-palette-color="primary"></path><path d="M103.461 29.96v0c-1.617 0.528-3.058 0.616-4.324 0.265-1.259-0.354-2.092-1.152-2.498-2.395v0l-4.187-12.822-2.863 0.935-0.181-0.551 3.259-2.433 2.585-5.686 0.761-0.249 1.429 4.376 5.535-1.808 0.584 1.788-5.535 1.808 3.861 11.823c0.226 0.691 0.682 1.1 1.369 1.227 0.687 0.127 1.43 0.059 2.229-0.202v0c0.501-0.164 0.934-0.34 1.3-0.53 0.358-0.194 0.711-0.39 1.061-0.588v0l0.148 0.035 0.221 0.676c-0.247 0.79-0.791 1.606-1.632 2.448-0.838 0.849-1.879 1.477-3.122 1.883z" fill="#030303" data-fill-palette-color="primary"></path><path d="M121.928 25.994v0c-1.36 0.141-2.571-0.15-3.631-0.872-1.053-0.716-1.634-1.856-1.742-3.422v0c-0.103-0.995 0.005-1.868 0.323-2.618 0.311-0.75 0.928-1.437 1.849-2.062 0.914-0.631 2.224-1.259 3.929-1.885v0l3.813-1.36-0.267-2.578c-0.109-1.055-0.515-1.871-1.219-2.449-0.703-0.571-1.555-0.805-2.557-0.702v0c-0.889 0.092-1.506 0.354-1.85 0.785-0.352 0.425-0.487 1.029-0.406 1.813v0l0.197 1.911-0.151 0.186-2.747 0.284c-0.418 0.043-0.72-0.023-0.906-0.198-0.186-0.182-0.304-0.508-0.353-0.979v0c-0.063-0.61 0.117-1.233 0.542-1.867 0.431-0.635 1.022-1.242 1.773-1.823v0c0.936-0.741 1.824-1.295 2.664-1.664 0.847-0.369 1.785-0.607 2.814-0.713v0c1.36-0.141 2.63-0.091 3.808 0.149 1.172 0.248 2.141 0.731 2.906 1.45 0.758 0.72 1.202 1.706 1.332 2.961v0l1.136 10.988c0.491 0.399 1.18 0.552 2.069 0.46v0l1.215-0.126 0.133 0.118 0.059 0.577c-0.25 0.562-0.721 1.104-1.411 1.624-0.691 0.521-1.616 0.841-2.778 0.962v0c-1.168 0.121-2.145-0.023-2.931-0.432-0.787-0.415-1.424-1.06-1.911-1.935v0l-0.248 0.026c-0.61 0.848-1.374 1.594-2.294 2.239-0.913 0.644-1.966 1.028-3.16 1.152zM121.939 19.967v0c0.092 0.889 0.402 1.524 0.931 1.905 0.529 0.381 1.225 0.527 2.087 0.438v0c0.75-0.078 1.522-0.325 2.318-0.742v0l-0.633-6.121c-1.355 0.449-2.383 0.89-3.082 1.324-0.699 0.434-1.164 0.905-1.393 1.412-0.223 0.499-0.299 1.094-0.228 1.784z" fill="#030303" data-fill-palette-color="primary"></path><path d="M173.196 30.938l-12.468-4.171 0.212-0.636 3.925-0.502 7.251-21.673-2.832-2.763 0.212-0.635 12.469 4.171-0.213 0.636-3.639 0.597-3.134 9.366 10.998 3.68 3.134-9.366-2.633-2.696 0.213-0.636 12.506 4.185-0.212 0.635-3.877 0.518-7.251 21.673 2.784 2.747-0.212 0.636-12.507-4.185 0.213-0.636 3.725-0.568 3.387-10.125-10.998-3.68-3.387 10.125 2.547 2.667z" fill="#030303" data-fill-palette-color="primary"></path><path d="M205.343 47.283v0c-1.619-1.154-2.778-2.538-3.479-4.152-0.695-1.61-0.948-3.273-0.757-4.988 0.191-1.715 0.813-3.312 1.866-4.789v0c1.069-1.499 2.383-2.619 3.942-3.359 1.56-0.74 3.21-1.038 4.951-0.894 1.746 0.147 3.429 0.798 5.048 1.952v0c1.613 1.15 2.769 2.523 3.466 4.118 0.692 1.591 0.943 3.245 0.753 4.961-0.196 1.712-0.829 3.317-1.898 4.816v0c-1.053 1.477-2.357 2.588-3.911 3.331-1.56 0.74-3.208 1.047-4.946 0.922-1.743-0.129-3.422-0.768-5.035-1.918zM206.908 45.88v0c0.657 0.469 1.387 0.583 2.189 0.343 0.803-0.23 1.615-0.72 2.436-1.47 0.827-0.746 1.596-1.619 2.309-2.618v0c0.875-1.228 1.582-2.472 2.122-3.734 0.539-1.262 0.798-2.417 0.775-3.466-0.027-1.043-0.461-1.865-1.302-2.465v0c-0.684-0.488-1.431-0.619-2.24-0.392-0.818 0.228-1.639 0.708-2.463 1.438-0.83 0.727-1.609 1.602-2.337 2.623v0c-0.891 1.249-1.596 2.503-2.117 3.763-0.521 1.259-0.757 2.418-0.709 3.476 0.05 1.068 0.496 1.902 1.337 2.502z" fill="#030303" data-fill-palette-color="primary"></path><path d="M224.671 64.909v0c-1.13-1.271-1.787-2.557-1.971-3.858-0.179-1.296 0.22-2.378 1.197-3.246v0l10.08-8.963-2.002-2.251 0.434-0.385 3.532 2.014 6.245 0.097 0.532 0.599-3.439 3.058 3.869 4.352-1.406 1.25-3.869-4.352-9.295 8.264c-0.543 0.483-0.736 1.065-0.577 1.746 0.159 0.68 0.517 1.334 1.075 1.962v0c0.35 0.394 0.685 0.721 1.006 0.981 0.321 0.25 0.642 0.496 0.963 0.736v0l0.027 0.151-0.531 0.472c-0.823 0.089-1.788-0.084-2.897-0.517-1.114-0.429-2.105-1.132-2.973-2.11z" fill="#030303" data-fill-palette-color="primary"></path><path d="M238.035 84.275v0c-1.438-2.49-1.853-4.869-1.245-7.138 0.608-2.269 2.096-4.088 4.464-5.455v0c1.837-1.061 3.693-1.602 5.569-1.622 1.876-0.02 3.604 0.418 5.185 1.315 1.578 0.891 2.849 2.172 3.813 3.841v0c1.131 1.958 1.357 3.857 0.679 5.698-0.678 1.84-2.206 3.462-4.585 4.866v0l-0.262-0.034-5.865-10.155-0.182 0.105c-1.017 0.587-1.829 1.315-2.437 2.182-0.614 0.871-0.921 1.861-0.92 2.97-0.001 1.118 0.381 2.341 1.149 3.669v0c0.404 0.699 0.909 1.381 1.517 2.047 0.614 0.662 1.362 1.285 2.247 1.869v0l0.065 0.113-0.581 0.335c-1.633 0.134-3.231-0.179-4.795-0.94-1.566-0.752-2.838-1.974-3.816-3.666zM253.707 75.317v0c-0.487-0.843-1.274-1.313-2.363-1.409-1.088-0.096-2.377 0.186-3.867 0.847v0l3.543 6.134c1.569-1.137 2.524-2.151 2.866-3.041 0.341-0.89 0.281-1.734-0.179-2.531z" fill="#030303" data-fill-palette-color="primary"></path><path d="M249.255 109.968l-3.53-10.615 0.636-0.212 2.159 2.245 23.358-7.768 1.024-3.166 0.474-0.158 4.736 6.945 0.158 0.475-27.887 9.274-0.492 2.769z" fill="#030303" data-fill-palette-color="primary"></path><path d="M12.537 192.925l-5.539-13.594 0.704-0.287 3.302 2.987 23.87-9.726 0.284-4.449 0.695-0.283 6.09 14.947c1.249 3.064 1.598 5.734 1.05 8.011-0.546 2.283-1.929 3.876-4.147 4.78v0c-1.6 0.652-3.198 0.673-4.793 0.062-1.587-0.607-3.073-1.647-4.459-3.121v0l-9.121 13.149-0.462 3.851-0.704 0.287-3.867-9.488 10.085-13.542-0.944-2.317-10.842 4.418-0.498 4.028zM38.369 180.616v0l-0.714-1.751-10.934 4.455 0.82 2.011c0.738 1.81 1.83 3.032 3.277 3.667 1.447 0.635 2.989 0.619 4.626-0.048v0c1.717-0.7 2.84-1.762 3.369-3.188 0.525-1.417 0.377-3.132-0.444-5.146z" fill="#030303" data-fill-palette-color="primary"></path><path d="M30.42 225.798v0c-1.961-2.581-2.763-5.185-2.405-7.811 0.353-2.623 1.759-4.868 4.219-6.737v0c1.902-1.445 3.9-2.31 5.996-2.595 2.101-0.289 4.096-0.046 5.984 0.731 1.894 0.773 3.499 2.025 4.814 3.757v0c1.542 2.029 2.063 4.121 1.565 6.276-0.495 2.16-1.974 4.194-4.439 6.099v0l-0.293-0.004-8.002-10.533-0.191 0.146c-1.052 0.799-1.857 1.729-2.417 2.79-0.563 1.056-0.765 2.207-0.606 3.452 0.153 1.249 0.752 2.562 1.797 3.938v0c0.553 0.728 1.218 1.421 1.994 2.079 0.782 0.654 1.708 1.245 2.779 1.771v0l0.085 0.112-0.606 0.46c-1.804 0.382-3.635 0.261-5.491-0.364-1.857-0.625-3.451-1.814-4.783-3.567zM46.68 213.557v0c-0.666-0.876-1.614-1.291-2.844-1.245-1.23 0.046-2.629 0.548-4.197 1.506v0l4.824 6.349c1.598-1.491 2.524-2.759 2.776-3.805 0.256-1.041 0.07-1.976-0.559-2.805z" fill="#030303" data-fill-palette-color="primary"></path><path d="M48.348 244.401v0c-1.2-0.977-1.934-2.172-2.202-3.586-0.268-1.414 0.177-2.785 1.335-4.113v0c0.716-0.879 1.5-1.489 2.352-1.827 0.851-0.348 1.891-0.405 3.119-0.171 1.233 0.229 2.777 0.773 4.634 1.63v0l4.127 1.967 1.851-2.274c0.754-0.926 1.076-1.898 0.967-2.916-0.1-1.019-0.589-1.886-1.469-2.601v0c-0.781-0.636-1.481-0.922-2.1-0.859-0.619 0.064-1.207 0.437-1.763 1.12v0l-1.371 1.684-0.268 0.027-2.421-1.971c-0.362-0.295-0.549-0.589-0.56-0.881-0.006-0.289 0.16-0.64 0.497-1.054v0c0.438-0.538 1.08-0.888 1.926-1.051 0.841-0.167 1.795-0.182 2.862-0.045v0c1.339 0.152 2.49 0.418 3.453 0.799 0.969 0.384 1.906 0.945 2.811 1.681v0c1.195 0.973 2.163 2.023 2.905 3.152 0.743 1.138 1.129 2.295 1.16 3.473 0.032 1.187-0.399 2.329-1.292 3.426v0l-7.87 9.669c0.077 0.708 0.507 1.38 1.288 2.016v0l1.055 0.859 0.028 0.203-0.423 0.52c-0.644 0.241-1.449 0.296-2.416 0.162-0.963-0.138-1.959-0.627-2.988-1.464v0c-1.024-0.834-1.687-1.726-1.989-2.677-0.297-0.956-0.288-1.976 0.028-3.061v0l-0.218-0.177c-1.166 0.186-2.37 0.17-3.611-0.049-1.246-0.223-2.392-0.76-3.437-1.611zM53.149 239.613v0c-0.636 0.781-0.893 1.535-0.771 2.262 0.117 0.723 0.555 1.394 1.316 2.013v0c0.657 0.535 1.473 0.954 2.448 1.257v0l4.377-5.377c-1.44-0.725-2.612-1.193-3.515-1.404-0.904-0.211-1.645-0.208-2.225 0.008-0.589 0.217-1.133 0.631-1.63 1.241z" fill="#030303" data-fill-palette-color="primary"></path><path d="M80.319 265.122l-11.129-5.923 0.357-0.671 3.501 0.151 13.041-24.502-1.624-3.381 0.268-0.504 9.264 1.995 0.495 0.264-15.57 29.255 1.755 2.645z" fill="#030303" data-fill-palette-color="primary"></path><path d="M97.84 271.953v0c-1.829-0.586-3.203-1.458-4.121-2.613-0.92-1.15-1.155-2.43-0.703-3.84v0l4.64-14.474-3.24-1.038 0.202-0.629 4.584-0.075 6.13-3.489 0.858 0.275-1.585 4.945 6.241 2.001-0.651 2.03-6.241-2.001-4.279 13.349c-0.25 0.781-0.106 1.455 0.434 2.021 0.545 0.574 1.268 1.005 2.17 1.294v0c0.565 0.181 1.079 0.304 1.543 0.368 0.456 0.062 0.908 0.116 1.356 0.162v0l0.103 0.138-0.245 0.762c-0.738 0.555-1.77 0.942-3.094 1.163-1.324 0.22-2.692 0.104-4.102-0.349z" fill="#030303" data-fill-palette-color="primary"></path><path d="M119.594 276.411v0c-1.54-0.156-2.81-0.751-3.812-1.784-1.002-1.033-1.384-2.423-1.147-4.17v0c0.114-1.128 0.434-2.068 0.959-2.819 0.519-0.759 1.356-1.378 2.512-1.858 1.156-0.486 2.744-0.882 4.766-1.187v0l4.529-0.627 0.296-2.917c0.12-1.188-0.145-2.177-0.796-2.967-0.644-0.796-1.529-1.251-2.658-1.365v0c-1.002-0.101-1.744 0.045-2.227 0.438-0.482 0.394-0.768 1.029-0.856 1.904v0l-0.219 2.161-0.208 0.17-3.106-0.315c-0.465-0.047-0.782-0.19-0.953-0.428-0.164-0.238-0.219-0.622-0.164-1.153v0c0.07-0.69 0.414-1.336 1.031-1.938 0.611-0.602 1.399-1.139 2.365-1.611v0c1.202-0.609 2.309-1.02 3.323-1.232 1.02-0.212 2.111-0.259 3.273-0.141v0c1.533 0.155 2.92 0.5 4.16 1.034 1.246 0.542 2.205 1.296 2.878 2.263 0.679 0.974 0.947 2.164 0.805 3.572v0l-1.256 12.404c0.454 0.549 1.182 0.874 2.184 0.975v0l1.354 0.137 0.136 0.155-0.068 0.667c-0.405 0.556-1.048 1.044-1.928 1.464-0.88 0.414-1.98 0.554-3.302 0.42v0c-1.314-0.133-2.358-0.514-3.132-1.142-0.774-0.635-1.327-1.492-1.661-2.572v0l-0.279-0.028c-0.872 0.797-1.886 1.445-3.043 1.945-1.164 0.499-2.416 0.681-3.756 0.545zM120.97 269.771v0c-0.101 1.002 0.099 1.773 0.601 2.314 0.495 0.54 1.231 0.859 2.206 0.957v0c0.843 0.085 1.755-0.013 2.735-0.296v0l0.699-6.899c-1.601 0.187-2.837 0.44-3.708 0.761-0.871 0.321-1.489 0.731-1.854 1.231-0.373 0.505-0.599 1.15-0.679 1.932z" fill="#030303" data-fill-palette-color="primary"></path><path d="M178.908 269.806l-14.075 4.638-0.238-0.723 3.206-3.09-8.066-24.481-4.418-0.588-0.235-0.712 14.075-4.638 0.234 0.713-2.889 2.996 3.485 10.577 12.421-4.092-3.485-10.578-4.191-0.663-0.234-0.713 14.122-4.653 0.235 0.713-3.156 3.084 8.066 24.481 4.368 0.594 0.238 0.722-14.122 4.653-0.238-0.722 2.978-3.015-3.767-11.432-12.421 4.092 3.767 11.433 4.102 0.682z" fill="#030303" data-fill-palette-color="primary"></path><path d="M218.054 251.075v0c-1.816 1.302-3.712 2.035-5.689 2.197-1.981 0.157-3.847-0.179-5.599-1.008-1.761-0.83-3.238-2.077-4.432-3.742v0c-1.209-1.686-1.925-3.496-2.147-5.43-0.227-1.93 0.057-3.801 0.853-5.61 0.795-1.81 2.101-3.366 3.916-4.669v0c1.816-1.302 3.7-2.034 5.654-2.195 1.958-0.165 3.816 0.169 5.571 1.003 1.761 0.83 3.246 2.088 4.455 3.774v0c1.194 1.664 1.901 3.463 2.123 5.398 0.223 1.925-0.052 3.797-0.824 5.615-0.771 1.809-2.065 3.365-3.881 4.667zM217.13 248.894v0c0.743-0.533 1.134-1.269 1.174-2.209 0.04-0.94-0.189-1.986-0.688-3.139-0.493-1.157-1.144-2.299-1.952-3.427v0c-0.988-1.377-2.058-2.583-3.212-3.619-1.15-1.031-2.288-1.725-3.415-2.083-1.123-0.352-2.158-0.188-3.107 0.493v0c-0.764 0.548-1.177 1.295-1.236 2.241-0.051 0.948 0.161 1.998 0.635 3.152 0.48 1.15 1.132 2.299 1.956 3.449v0c1.011 1.409 2.093 2.62 3.246 3.632 1.147 1.016 2.296 1.69 3.445 2.023 1.154 0.338 2.205 0.167 3.154-0.513z" fill="#030303" data-fill-palette-color="primary"></path><path d="M240.72 230.378v0c-1.275 1.437-2.627 2.342-4.055 2.716-1.423 0.378-2.689 0.075-3.797-0.908v0l-11.368-10.089-2.258 2.545-0.494-0.439 1.782-4.224-0.716-7.017 0.598-0.673 3.884 3.447 4.351-4.902 1.594 1.414-4.351 4.902 10.485 9.305c0.614 0.545 1.288 0.684 2.024 0.418 0.745-0.267 1.432-0.754 2.061-1.462v0c0.394-0.444 0.714-0.865 0.959-1.262 0.241-0.392 0.473-0.784 0.696-1.176v0l0.167-0.038 0.599 0.531c0.21 0.899 0.148 1.999-0.186 3.3-0.334 1.3-0.992 2.504-1.975 3.612z" fill="#030303" data-fill-palette-color="primary"></path><path d="M256.22 208.001v0c-1.632 2.802-3.729 4.54-6.292 5.217-2.557 0.68-5.171 0.243-7.839-1.312v0c-2.064-1.202-3.629-2.716-4.697-4.541-1.073-1.829-1.613-3.765-1.62-5.807-0.013-2.046 0.528-4.008 1.622-5.887v0c1.282-2.202 3.014-3.486 5.196-3.852 2.185-0.372 4.63 0.215 7.336 1.759v0l0.108 0.272-6.657 11.43 0.207 0.121c1.141 0.665 2.309 1.052 3.505 1.161 1.191 0.115 2.332-0.14 3.42-0.764 1.095-0.621 2.077-1.677 2.947-3.17v0c0.46-0.79 0.845-1.669 1.155-2.639 0.304-0.973 0.494-2.055 0.57-3.246v0l0.07-0.121 0.658 0.382c1.045 1.519 1.635 3.257 1.77 5.212 0.135 1.955-0.351 3.883-1.459 5.785zM238.678 197.681v0c-0.554 0.951-0.574 1.986-0.059 3.103 0.515 1.118 1.515 2.218 3 3.299v0l4.014-6.891c-1.99-0.904-3.516-1.272-4.58-1.104-1.06 0.163-1.851 0.693-2.375 1.593z" fill="#030303" data-fill-palette-color="primary"></path><path d="M268.474 178.206l-4.077 11.931-0.72-0.246-0.407-3.481-26.265-8.976-3.08 2.141-0.539-0.185 0.495-9.464 0.181-0.53 31.36 10.717 2.332-2.153z" fill="#030303" data-fill-palette-color="primary"></path><path d="M0.088 140.76c0-6.624 5.37-11.994 11.995-11.994 6.624 0 11.994 5.37 11.994 11.994 0 6.624-5.37 11.994-11.994 11.995-6.624 0-11.994-5.37-11.995-11.995z" fill="#030303" data-fill-palette-color="primary"></path><path d="M250.688 140.76c0-6.624 5.37-11.994 11.995-11.994 6.624 0 11.994 5.37 11.994 11.994 0 6.624-5.37 11.994-11.994 11.995-6.624 0-11.994-5.37-11.995-11.995z" fill="#030303" data-fill-palette-color="primary"></path></g><g id="text-1"></g></svg></g><g transform="matrix(1,0,0,1,53.1494936,300.14062)"><svg viewBox="0 0 171.97061280000003 18.515756397429676" height="18.515756397429676" width="171.97061280000003"><g transform="matrix(1,0,0,1,0,0)"><svg width="171.97061280000003" viewBox="2.3 -37.5 350.12 37.7" height="18.515756397429676" data-palette-color="#030303"><path d="M4.95-33.95L2.3-34.25 2.35-35 23.75-35 23.7-34.85 24.35-27.8 23.35-27.4 22.55-34 8.95-34 8.95-17.85 20.9-17.85Q21.15-17.8 21.35-17.98 21.55-18.15 21.55-18.45L21.55-18.45 21.75-21.9 22.55-22 22.55-13.45Q22.5-13.45 21.8-13.4L21.8-13.4 21.6-16.85 8.95-16.85 8.95-0.95 12.4-0.75Q12.4-0.7 12.35 0L12.35 0 2.3 0.05 2.35-0.65 4.95-1Q5.45-1.05 5.55-1.65L5.55-1.65 5.55-33.3Q5.45-33.9 4.95-33.95L4.95-33.95ZM29.85-11.5L29.85-11.5Q29.85-0.7 38.25-0.7L38.25-0.7Q40.45-0.7 42.95-1.18 45.45-1.65 46.15-2.05L46.15-2.05 46.5-1.55Q45.35-0.8 42.72-0.3 40.1 0.2 37.92 0.2 35.75 0.2 34.02-0.25 32.3-0.7 30.5-1.85 28.7-3 27.65-5.45 26.6-7.9 26.6-11.45L26.6-11.45Q26.6-18.05 30-21.55L30-21.55Q33.55-25.2 38.25-25.2 42.95-25.2 45.42-22.6 47.9-20 47.9-15.3L47.9-15.3Q47.9-14.3 47.75-13.15L47.75-13.15 29.9-13.15Q29.85-12.6 29.85-11.5ZM44.95-15.65L44.95-15.65Q44.95-19.4 43.3-21.78 41.65-24.15 38.8-24.15L38.8-24.15Q35.1-24.15 32.55-20.9L32.55-20.9Q30.5-18.35 30-14.1L30-14.1 44.9-14.1Q44.95-14.65 44.95-15.65ZM55.15-11.5L55.15-11.5Q55.15-0.7 63.55-0.7L63.55-0.7Q65.75-0.7 68.25-1.18 70.75-1.65 71.45-2.05L71.45-2.05 71.8-1.55Q70.65-0.8 68.02-0.3 65.4 0.2 63.22 0.2 61.05 0.2 59.32-0.25 57.6-0.7 55.8-1.85 54-3 52.95-5.45 51.9-7.9 51.9-11.45L51.9-11.45Q51.9-18.05 55.3-21.55L55.3-21.55Q58.85-25.2 63.55-25.2 68.25-25.2 70.72-22.6 73.2-20 73.2-15.3L73.2-15.3Q73.2-14.3 73.05-13.15L73.05-13.15 55.2-13.15Q55.15-12.6 55.15-11.5ZM70.25-15.65L70.25-15.65Q70.25-19.4 68.59-21.78 66.95-24.15 64.09-24.15L64.09-24.15Q60.4-24.15 57.85-20.9L57.85-20.9Q55.8-18.35 55.3-14.1L55.3-14.1 70.2-14.1Q70.25-14.65 70.25-15.65ZM87.24 0L77.19 0.05 77.24-0.65 79.84-1Q80.19-1.05 80.29-1.5L80.29-1.5 80.29-35.7Q80.29-36.25 79.99-36.25L79.99-36.25 76.94-36.35 76.99-37.05Q80.14-37.5 81.32-37.5 82.49-37.5 83.02-36.85 83.54-36.2 83.54-35.45L83.54-35.45 83.54-1 87.29-0.75Q87.29-0.7 87.24 0L87.24 0ZM97.14-0.6L97.14-0.6Q97.44-0.6 97.74-0.65L97.74-0.65Q100.34-0.7 102.09-2.27 103.84-3.85 103.84-6.9L103.84-6.9Q103.84-9.9 99.14-11.25L99.14-11.25Q97.19-11.8 95.24-12.45 93.29-13.1 91.92-14.5 90.54-15.9 90.54-18.15L90.54-18.15Q90.54-21.35 92.99-23.28 95.44-25.2 99.19-25.2L99.19-25.2Q101.99-25.2 104.84-24.2L104.84-24.2 105.74-23.85 105.74-18.1 104.79-17.75 104.59-22Q101.69-24.3 99.74-24.3L99.74-24.3Q96.99-24.3 95.39-22.68 93.79-21.05 93.79-18.35L93.79-18.35Q93.79-16.8 95.17-15.85 96.54-14.9 98.49-14.35 100.44-13.8 102.39-13.13 104.34-12.45 105.72-10.93 107.09-9.4 107.09-6.95L107.09-6.95Q107.09-3.65 104.62-1.73 102.14 0.2 97.59 0.2 93.04 0.2 90.04-1.95L90.04-1.95 90.04-7.7 90.94-8.05 91.19-3.8Q91.89-2.5 93.72-1.55 95.54-0.6 97.14-0.6ZM126.54-34.95L136.59-35Q136.59-34.95 136.64-34.25L136.64-34.25 133.19-33.95 133.19-1 146.99-1 147.99-9 148.94-8.75 148.19 0 136.59 0 126.54 0.05 126.59-0.65 129.19-1Q129.69-1.05 129.79-1.65L129.79-1.65 129.79-33.3Q129.69-33.9 129.19-33.95L129.19-33.95 126.59-34.2 126.54-34.95ZM158.18-22.95L158.18-22.95 158.18-1 161.93-0.75Q161.93-0.7 161.88 0L161.88 0 151.88 0.05Q151.88-0.4 151.93-0.65L151.93-0.65 154.53-1Q154.83-1 154.93-1.45L154.93-1.45 154.93-23.4Q154.83-23.75 154.63-23.75L154.63-23.75 151.63-23.85 151.68-24.55Q154.38-25 155.78-25 157.18-25 157.68-24.35 158.18-23.7 158.18-22.95ZM156.48-31.7Q155.48-31.7 154.93-32.33 154.38-32.95 154.38-33.98 154.38-35 154.96-35.63 155.53-36.25 156.53-36.25 157.53-36.25 158.16-35.63 158.78-35 158.78-33.93 158.78-32.85 158.13-32.27 157.48-31.7 156.48-31.7ZM175.73 0L165.68 0.05 165.73-0.65 168.33-1Q168.68-1.05 168.78-1.5L168.78-1.5 168.78-35.7Q168.78-36.25 168.48-36.25L168.48-36.25 165.43-36.35 165.48-37.05Q168.63-37.5 169.81-37.5 170.98-37.5 171.51-36.85 172.03-36.2 172.03-35.45L172.03-35.45 172.03-1 175.78-0.75Q175.78-0.7 175.73 0L175.73 0ZM186.08-1L189.53-0.75Q189.53-0.7 189.48 0L189.48 0 183.18 0 172.03-13.3 180.63-23.25Q180.63-23.9 180.23-23.95L180.23-23.95 177.63-24.3Q177.58-24.55 177.58-25L177.58-25 188.08-24.95Q188.08-24.9 188.13-24.2L188.13-24.2 182.43-23.85 174.03-14.7 186.08-1ZM193.18-11.5L193.18-11.5Q193.18-0.7 201.58-0.7L201.58-0.7Q203.78-0.7 206.28-1.18 208.78-1.65 209.48-2.05L209.48-2.05 209.83-1.55Q208.68-0.8 206.05-0.3 203.43 0.2 201.25 0.2 199.08 0.2 197.35-0.25 195.63-0.7 193.83-1.85 192.03-3 190.98-5.45 189.93-7.9 189.93-11.45L189.93-11.45Q189.93-18.05 193.33-21.55L193.33-21.55Q196.88-25.2 201.58-25.2 206.28-25.2 208.75-22.6 211.23-20 211.23-15.3L211.23-15.3Q211.23-14.3 211.08-13.15L211.08-13.15 193.23-13.15Q193.18-12.6 193.18-11.5ZM208.28-15.65L208.28-15.65Q208.28-19.4 206.63-21.78 204.98-24.15 202.13-24.15L202.13-24.15Q198.43-24.15 195.88-20.9L195.88-20.9Q193.83-18.35 193.33-14.1L193.33-14.1 208.23-14.1Q208.28-14.65 208.28-15.65ZM250.12-34.95L259.62-35Q259.62-34.95 259.67-34.25L259.67-34.25 256.52-33.9 256.52-0.95 260.17-0.75Q260.17-0.7 260.12 0L260.12 0 250.12 0.05Q250.12-0.4 250.17-0.65L250.17-0.65 252.77-1Q253.27-1.05 253.37-1.65L253.37-1.65 253.37-16.85 236.32-16.85 236.32-0.95 240.02-0.75Q240.02-0.7 239.97 0L239.97 0 229.92 0.05 229.97-0.65 232.57-1Q233.07-1.05 233.17-1.6L233.17-1.6 233.17-33.3Q233.07-33.9 232.57-33.95L232.57-33.95 229.97-34.2 229.92-34.95 239.97-35Q239.97-34.95 240.02-34.25L240.02-34.25 236.32-33.9 236.32-17.85 253.37-17.85 253.37-33.25Q253.27-33.9 252.77-33.95L252.77-33.95 250.17-34.2Q250.12-34.5 250.12-34.95L250.12-34.95ZM274.1 0.2Q268.87 0.2 265.65-2.8 262.42-5.8 262.42-11.98 262.42-18.15 265.85-21.68 269.27-25.2 274.47-25.2 279.67-25.2 282.92-22.2 286.17-19.2 286.17-13.03 286.17-6.85 282.75-3.33 279.32 0.2 274.1 0.2ZM274.42-24.3Q270.67-24.3 268.17-21.05 265.67-17.8 265.67-12.23 265.67-6.65 268.05-3.68 270.42-0.7 274.17-0.7 277.92-0.7 280.42-3.95 282.92-7.2 282.92-12.75 282.92-18.3 280.55-21.3 278.17-24.3 274.42-24.3ZM301.97-24.05L301.97-24.05Q298.97-24 295.47-21.85L295.47-21.85 295.47-1 299.22-0.75Q299.22-0.7 299.17 0L299.17 0 289.17 0.05Q289.17-0.4 289.22-0.65L289.22-0.65 291.82-1Q292.12-1 292.22-1.45L292.22-1.45 292.22-23.4Q292.12-23.75 291.92-23.75L291.92-23.75 288.92-23.85 288.97-24.55Q291.67-25 293.07-25 294.47-25 294.97-24.35 295.47-23.7 295.47-22.95L295.47-22.95 295.47-22.35Q299.62-24.95 303.07-25.15L303.07-25.15Q307.82-25.15 309.52-22.45L309.52-22.45Q313.87-24.95 317.72-25.15L317.72-25.15Q321.22-25.15 323.02-23.7L323.02-23.7Q323.87-23.05 324.49-21.68 325.12-20.3 325.12-18.4L325.12-18.4 325.12-1 328.87-0.75Q328.87-0.7 328.82 0L328.82 0 318.82 0.05Q318.82-0.4 318.87-0.65L318.87-0.65 321.47-1Q321.77-1 321.87-1.45L321.87-1.45 321.87-17.15Q321.87-19.15 321.37-20.58 320.87-22 320.27-22.65 319.67-23.3 318.77-23.65L318.77-23.65Q317.77-24.05 316.62-24.05L316.62-24.05Q313.52-24 309.87-21.7L309.87-21.7Q310.52-20.3 310.52-18.4L310.52-18.4 310.52-1 314.27-0.75Q314.27-0.7 314.22 0L314.22 0 304.17 0.05 304.22-0.65 306.82-1Q307.17-1.05 307.27-1.5L307.27-1.5 307.27-17.2Q307.27-19.65 306.62-21.23 305.97-22.8 304.87-23.3L304.87-23.3Q303.37-24.05 301.97-24.05ZM334.37-11.5L334.37-11.5Q334.37-0.7 342.76-0.7L342.76-0.7Q344.97-0.7 347.47-1.18 349.97-1.65 350.67-2.05L350.67-2.05 351.01-1.55Q349.87-0.8 347.24-0.3 344.62 0.2 342.44 0.2 340.26 0.2 338.54-0.25 336.81-0.7 335.01-1.85 333.22-3 332.17-5.45 331.12-7.9 331.12-11.45L331.12-11.45Q331.12-18.05 334.51-21.55L334.51-21.55Q338.06-25.2 342.76-25.2 347.47-25.2 349.94-22.6 352.42-20 352.42-15.3L352.42-15.3Q352.42-14.3 352.26-13.15L352.26-13.15 334.42-13.15Q334.37-12.6 334.37-11.5ZM349.47-15.65L349.47-15.65Q349.47-19.4 347.81-21.78 346.17-24.15 343.31-24.15L343.31-24.15Q339.62-24.15 337.06-20.9L337.06-20.9Q335.01-18.35 334.51-14.1L334.51-14.1 349.42-14.1Q349.47-14.65 349.47-15.65Z" opacity="1" transform="matrix(1,0,0,1,0,0)" fill="#030303" class="slogan-text-1" data-fill-palette-color="secondary" id="text-1"></path></svg></g></svg></g></svg></g></svg></g></svg></g><defs></defs></svg><rect width="244.51256516776382" height="280" fill="none" stroke="none" visibility="hidden"></rect></g></svg></g></svg>